<svg width="184" height="32" viewBox="0 0 184 32" fill="none" xmlns="http://www.w3.org/2000/svg">
<g clip-path="url(#clip0)">
<path d="M15.59 17.03C15.5177 15.011 14.6648 13.0987 13.2108 11.696C11.7569 10.2932 9.81534 9.50925 7.795 9.50925C5.77466 9.50925 3.83314 10.2932 2.37919 11.696C0.92525 13.0987 0.0723282 15.011 0 17.03C0.0723282 19.0491 0.92525 20.9613 2.37919 22.3641C3.83314 23.7669 5.77466 24.5508 7.795 24.5508C9.81534 24.5508 11.7569 23.7669 13.2108 22.3641C14.6648 20.9613 15.5177 19.0491 15.59 17.03V17.03ZM7.79 21.32C6.94109 21.32 6.11127 21.0681 5.40557 20.5963C4.69987 20.1245 4.15002 19.4539 3.82561 18.6694C3.50121 17.8849 3.41684 17.0218 3.58318 16.1894C3.74952 15.3569 4.1591 14.5925 4.76007 13.993C5.36104 13.3934 6.12637 12.9856 6.95921 12.8212C7.79205 12.6568 8.65493 12.7432 9.43865 13.0694C10.2224 13.3957 10.8917 13.9471 11.3619 14.6539C11.8321 15.3607 12.082 16.1911 12.08 17.04C12.0747 18.1752 11.6207 19.2623 10.8171 20.0641C10.0134 20.8659 8.92524 21.3174 7.79 21.32V21.32Z" fill="#030303"/>
<path d="M53.85 9.37001C52.3137 9.38973 50.8175 9.86332 49.5497 10.7312C48.2819 11.5991 47.299 12.8225 46.7247 14.2475C46.1504 15.6726 46.0103 17.2357 46.3221 18.7401C46.6339 20.2446 47.3836 21.6233 48.4769 22.7027C49.5702 23.7822 50.9583 24.5143 52.4667 24.8068C53.975 25.0994 55.5361 24.9394 56.9537 24.347C58.3714 23.7545 59.5821 22.7561 60.4338 21.4773C61.2854 20.1985 61.7399 18.6964 61.74 17.16C61.7428 16.1278 61.5399 15.1053 61.1431 14.1524C60.7463 13.1995 60.1636 12.3352 59.4291 11.6099C58.6946 10.8847 57.8229 10.3131 56.865 9.92852C55.9071 9.54393 54.8821 9.35406 53.85 9.37001ZM53.95 21.44C53.1011 21.44 52.2713 21.1881 51.5656 20.7163C50.8599 20.2445 50.31 19.5739 49.9856 18.7894C49.6612 18.0049 49.5768 17.1418 49.7432 16.3094C49.9095 15.4769 50.3191 14.7126 50.9201 14.113C51.521 13.5134 52.2864 13.1056 53.1192 12.9412C53.9521 12.7768 54.8149 12.8632 55.5987 13.1894C56.3824 13.5157 57.0517 14.0671 57.5219 14.7739C57.9921 15.4807 58.242 16.3111 58.24 17.16C58.24 17.7229 58.129 18.2803 57.9133 18.8002C57.6975 19.3201 57.3814 19.7924 56.9829 20.19C56.5844 20.5875 56.1114 20.9026 55.591 21.1171C55.0705 21.3316 54.5129 21.4413 53.95 21.44V21.44Z" fill="#030303"/>
<path d="M25.84 0.459991C35.5861 0.591938 44.983 4.10956 52.42 10.41L48.93 14.15C37.59 2.99999 22.68 1.46999 7.78999 6.61999C12.9637 2.63412 19.309 0.468637 25.84 0.459991Z" fill="#030303"/>
<path d="M13.85 16.79C24.49 13.85 36.42 15.42 44.98 20.38C34.2558 16.9947 22.732 17.1138 12.08 20.72L13.85 16.79Z" fill="#030303"/>
<path d="M67.1459 23.9401C65.9081 23.9401 64.9798 23.592 64.3609 22.8957C63.742 22.1802 63.4326 21.2615 63.4326 20.1398V1.89249H67.0298V18.6603C67.0298 19.4339 67.0685 19.9851 67.1459 20.3138C67.2426 20.6233 67.3973 20.8167 67.61 20.894C67.8421 20.9521 68.2289 20.9811 68.7704 20.9811L68.4513 23.9401H67.1459ZM84.1403 1.89249V23.65H80.7461L80.6881 22.7217C80.1272 23.1278 79.5374 23.4373 78.9185 23.65C78.3189 23.8434 77.6034 23.9401 76.7717 23.9401C75.3599 23.9401 74.1415 23.6016 73.1165 22.9247C72.1108 22.2478 71.3469 21.3389 70.8247 20.1978C70.3025 19.0567 70.0414 17.7996 70.0414 16.4265C70.0414 15.0534 70.3025 13.7963 70.8247 12.6552C71.3469 11.5141 72.1108 10.6052 73.1165 9.92826C74.1415 9.25136 75.3599 8.91291 76.7717 8.91291C78.1836 8.91291 79.4407 9.29971 80.543 10.0733V1.89249H84.1403ZM77.2939 20.9811C78.435 20.9811 79.2859 20.5749 79.8468 19.7627C80.427 18.9504 80.7171 17.8383 80.7171 16.4265C80.7171 15.0147 80.427 13.9026 79.8468 13.0904C79.2859 12.2781 78.435 11.8719 77.2939 11.8719C76.1722 11.8719 75.2922 12.2877 74.654 13.1194C74.0351 13.951 73.7257 15.0534 73.7257 16.4265C73.7257 17.7996 74.0351 18.902 74.654 19.7336C75.2922 20.5653 76.1722 20.9811 77.2939 20.9811ZM140.341 12.104H138.281L138.6 9.14499H140.341V6.06993C140.341 4.77415 140.718 3.7588 141.472 3.02388C142.246 2.26962 143.339 1.89249 144.75 1.89249C145.543 1.89249 146.327 1.97952 147.1 2.15358L146.781 5.05458C146.452 4.95788 146.075 4.90953 145.65 4.90953C144.509 4.90953 143.938 5.50907 143.938 6.70815V9.14499H147.129V12.104H143.938V23.65H140.341V12.104ZM156.179 23.9401C154.497 23.9401 153.056 23.6016 151.857 22.9247C150.677 22.2285 149.787 21.3099 149.188 20.1688C148.608 19.0084 148.317 17.7223 148.317 16.3105C148.317 14.9567 148.598 13.7189 149.159 12.5972C149.72 11.4755 150.532 10.5858 151.596 9.92826C152.659 9.25136 153.926 8.91291 155.396 8.91291C156.75 8.91291 157.891 9.19334 158.819 9.7542C159.767 10.3151 160.473 11.0693 160.937 12.017C161.42 12.9646 161.662 14.0283 161.662 15.2081C161.662 15.7883 161.585 16.4458 161.43 17.1808H152.06C152.253 18.4572 152.756 19.4145 153.568 20.0528C154.381 20.6716 155.357 20.9811 156.498 20.9811C158.065 20.9811 159.515 20.5846 160.85 19.7917L161.024 22.8377C160.405 23.1665 159.68 23.4373 158.848 23.65C158.036 23.8434 157.146 23.9401 156.179 23.9401ZM158.007 14.7439C158.007 13.9897 157.794 13.3224 157.369 12.7422C156.943 12.162 156.286 11.8719 155.396 11.8719C154.506 11.8719 153.791 12.133 153.249 12.6552C152.708 13.1774 152.34 13.8736 152.147 14.7439H158.007ZM162.725 9.14499H166.235L168.73 19.2695L171.457 9.43509H174.474L177.172 19.2695L179.696 9.14499H183.206L178.971 23.65H175.954L172.966 14.1927L169.978 23.65H166.961L162.725 9.14499Z" fill="#010101"/>
<path d="M94.7953 8.91291C96.594 8.91291 97.9574 9.51245 98.8857 10.7115C99.8141 11.9106 100.278 13.5255 100.278 15.5562V23.65H96.681V15.8463C96.681 14.4925 96.4489 13.4965 95.9847 12.8583C95.5399 12.2007 94.8147 11.8719 93.809 11.8719C92.7066 11.8719 91.7976 12.2877 91.0821 13.1194V23.65H87.4848V9.14499H90.85L90.908 10.1603C92.1264 9.32872 93.4222 8.91291 94.7953 8.91291ZM110.483 23.9401C108.8 23.9401 107.359 23.6016 106.16 22.9247C104.98 22.2285 104.091 21.3099 103.491 20.1688C102.911 19.0084 102.621 17.7223 102.621 16.3105C102.621 14.9567 102.901 13.7189 103.462 12.5972C104.023 11.4755 104.835 10.5858 105.899 9.92826C106.963 9.25136 108.23 8.91291 109.699 8.91291C111.053 8.91291 112.194 9.19334 113.123 9.7542C114.07 10.3151 114.776 11.0693 115.24 12.017C115.724 12.9646 115.966 14.0283 115.966 15.2081C115.966 15.7883 115.888 16.4458 115.734 17.1808H106.363C106.557 18.4572 107.06 19.4145 107.872 20.0528C108.684 20.6716 109.661 20.9811 110.802 20.9811C112.368 20.9811 113.819 20.5846 115.153 19.7917L115.327 22.8377C114.709 23.1665 113.983 23.4373 113.152 23.65C112.339 23.8434 111.45 23.9401 110.483 23.9401ZM112.31 14.7439C112.31 13.9897 112.098 13.3224 111.672 12.7422C111.247 12.162 110.589 11.8719 109.699 11.8719C108.81 11.8719 108.094 12.133 107.553 12.6552C107.011 13.1774 106.644 13.8736 106.45 14.7439H112.31ZM117.029 9.14499H120.539L123.034 19.2695L125.761 9.43509H128.778L131.476 19.2695L134 9.14499H137.51L133.274 23.65H130.257L127.269 14.1927L124.281 23.65H121.264L117.029 9.14499Z" fill="#085653"/>
</g>
<defs>
<clipPath id="clip0">
<rect width="183.53" height="31.91" fill="white"/>
</clipPath>
</defs>
</svg>
